<?xml version="1.0" standalone="no"?>
<!DOCTYPE svg PUBLIC "-//W3C//DTD SVG 20010904//EN"
 "http://www.w3.org/TR/2001/REC-SVG-20010904/DTD/svg10.dtd">
<svg version="1.0" xmlns="http://www.w3.org/2000/svg"
 width="512.000000pt" height="512.000000pt" viewBox="0 0 512.000000 512.000000"
 preserveAspectRatio="xMidYMid meet">

<g transform="translate(0.000000,512.000000) scale(0.100000,-0.100000)"
fill="#000000" stroke="none">
<path d="M2700 5056 c-220 -75 -403 -146 -485 -189 -94 -50 -208 -171 -287
-306 -89 -150 -98 -204 -45 -281 36 -53 70 -73 135 -78 93 -7 128 17 210 140
56 86 75 106 120 131 42 24 65 30 115 30 87 0 144 -29 210 -108 29 -35 68 -72
88 -84 78 -45 189 -14 235 65 23 39 26 53 23 116 l-4 71 195 84 c107 46 203
93 213 105 9 11 17 31 17 45 0 30 -42 73 -70 73 -28 0 -439 -176 -463 -198
-39 -35 -50 -72 -43 -149 8 -104 -6 -106 -97 -10 -108 114 -227 159 -362 137
-125 -20 -216 -86 -297 -216 -46 -73 -56 -84 -78 -82 -14 2 -26 10 -28 19 -4
22 103 201 156 260 23 26 66 63 95 82 67 44 306 140 516 206 173 56 211 78
211 126 0 32 -42 75 -72 74 -13 0 -106 -29 -208 -63z"/>
<path d="M2333 4222 c-262 -94 -290 -456 -45 -590 59 -32 73 -35 181 -42 93
-6 129 -13 181 -35 55 -23 75 -27 128 -22 125 10 212 98 220 222 5 78 -8 120
-54 174 -68 79 -155 104 -193 55 -37 -46 -26 -86 30 -114 48 -25 69 -55 69
-101 0 -29 -7 -43 -31 -63 -38 -33 -66 -33 -148 0 -50 20 -91 28 -177 33 -96
6 -117 11 -148 31 -48 34 -76 87 -76 146 1 128 127 209 247 159 68 -29 110
-15 128 43 26 86 -174 153 -312 104z"/>
<path d="M1075 3461 c-48 -12 -74 -33 -95 -77 -17 -34 -20 -61 -20 -185 0
-121 4 -151 20 -187 27 -59 78 -81 183 -82 55 0 77 -4 77 -12 0 -7 7 -96 15
-198 20 -253 22 -230 -23 -230 -91 0 -199 -68 -245 -154 -20 -38 -22 -57 -25
-249 -3 -201 -3 -209 21 -260 50 -110 142 -167 268 -167 l77 0 6 -67 c4 -38
25 -324 47 -638 27 -385 45 -589 56 -628 31 -112 120 -219 225 -273 106 -54
103 -54 895 -54 504 0 749 4 785 11 112 24 226 103 288 199 54 84 67 146 85
405 l17 236 -23 25 c-18 19 -32 24 -58 22 -61 -5 -68 -26 -85 -273 -9 -121
-21 -236 -26 -255 -26 -93 -109 -177 -203 -205 -75 -22 -1479 -22 -1554 0 -94
28 -177 111 -203 205 -6 19 -48 573 -95 1230 -46 657 -87 1225 -90 1263 l-6
67 1171 0 1171 0 -6 -67 c-3 -38 -33 -446 -65 -908 -53 -749 -58 -842 -45
-862 21 -31 50 -45 80 -37 49 12 54 33 75 323 11 150 20 275 20 277 0 2 35 4
78 4 121 0 210 52 265 154 21 39 22 53 22 261 0 208 -1 222 -22 261 -46 86
-154 154 -245 154 -45 0 -43 -23 -23 230 8 102 15 191 15 198 0 8 22 12 78 12
104 1 155 23 182 82 16 36 20 66 20 187 0 165 -13 211 -72 246 -32 20 -58 20
-1188 23 -635 2 -1170 0 -1188 -3 -38 -7 -72 -40 -72 -71 0 -12 9 -33 21 -48
l20 -26 1162 -2 1162 -3 0 -115 0 -115 -1445 0 -1445 0 0 115 0 115 172 5
c157 5 173 7 187 25 32 42 15 96 -35 114 -35 12 -315 13 -364 2z m209 -1163
c3 -24 10 -119 16 -213 6 -93 13 -194 17 -224 l6 -53 -72 4 c-64 3 -74 7 -104
36 l-32 32 -3 179 c-3 150 -1 185 13 211 21 40 70 70 117 70 36 0 37 -1 42
-42z m2663 22 c59 -35 65 -60 61 -261 l-3 -179 -32 -32 c-30 -29 -40 -33 -104
-36 l-71 -4 6 58 c3 33 11 133 16 224 6 91 13 184 16 208 5 41 6 42 42 42 20
0 51 -9 69 -20z"/>
<path d="M2511 2391 c-11 -11 -22 -39 -26 -63 -3 -24 -5 -396 -3 -826 l3 -784
28 -24 c35 -30 59 -30 94 0 l28 24 3 784 c2 430 0 802 -3 826 -8 53 -35 82
-75 82 -16 0 -39 -9 -49 -19z"/>
<path d="M2026 2159 l-26 -20 0 -590 c0 -397 3 -597 11 -610 25 -48 105 -44
128 7 8 18 11 195 11 605 l0 580 -25 24 c-30 30 -64 32 -99 4z"/>
<path d="M2995 2155 l-25 -24 0 -580 c0 -410 3 -587 11 -605 23 -51 103 -55
128 -7 8 13 11 212 11 606 l0 586 -25 24 c-13 14 -36 25 -50 25 -14 0 -37 -11
-50 -25z"/>
</g>
</svg>
